<?xml version="1.0" encoding="UTF-8"?>
<svg version="1.1" xmlns="http://www.w3.org/2000/svg" width="360" height="360">
<path d="M0 0 C9.24 0 18.48 0 28 0 C28 0.33 28 0.66 28 1 C28.77085938 1.06058594 29.54171875 1.12117188 30.3359375 1.18359375 C31.33882813 1.26738281 32.34171875 1.35117188 33.375 1.4375 C34.87160156 1.55931641 34.87160156 1.55931641 36.3984375 1.68359375 C39 2 39 2 41 3 C41 3.66 41 4.32 41 5 C41.59312988 4.99476318 42.18625977 4.98952637 42.79736328 4.98413086 C54.2495695 4.89658254 65.58897338 4.90952647 77 6 C77 6.66 77 7.32 77 8 C79.31 8 81.62 8 84 8 C84 8.99 84 9.98 84 11 C84.99 11 85.98 11 87 11 C89.47342266 14.71013399 89.38503486 16.61060262 89 21 C87.8125 23.4375 87.8125 23.4375 86 25 C83.3125 25.25 83.3125 25.25 81 25 C81 25.99 81 26.98 81 28 C77.04 28.33 73.08 28.66 69 29 C70.46510021 33.08785794 70.46510021 33.08785794 73.125 33.75 C73.74375 33.8325 74.3625 33.915 75 34 C75 34.66 75 35.32 75 36 C75.556875 36.04125 76.11375 36.0825 76.6875 36.125 C80.30594331 37.49414071 82.37051043 39.57289892 84 43 C85.03937448 49.94841087 84.35553935 55.84817787 81 62 C80.34 62 79.68 62 79 62 C78.34 63.65 77.68 65.3 77 67 C74.69 67 72.38 67 70 67 C70 64.36 70 61.72 70 59 C70.66 59 71.32 59 72 59 C71.690625 57.989375 71.38125 56.97875 71.0625 55.9375 C70.02352081 52.3268631 69.45688819 48.73125353 69 45 C68.34 45 67.68 45 67 45 C66.67 47.31 66.34 49.62 66 52 C64.515 52.495 64.515 52.495 63 53 C63 52.34 63 51.68 63 51 C62.34 51 61.68 51 61 51 C61.495 53.475 61.495 53.475 62 56 C62.66 56 63.32 56 64 56 C64 58.64 64 61.28 64 64 C65.65 64.33 67.3 64.66 69 65 C68.45276317 68.37462715 67.9451 70.08235 66 73 C63.27406311 73.3742218 63.27406311 73.3742218 59.76196289 73.37231445 C58.4504274 73.37854324 57.13889191 73.38477203 55.78761292 73.39118958 C54.34929019 73.38250088 52.91097114 73.37318282 51.47265625 73.36328125 C50.0029653 73.36276275 48.53327364 73.36328004 47.06358337 73.36479187 C43.98084176 73.36470208 40.89836127 73.35425946 37.81567383 73.33618164 C33.86325881 73.31351393 29.91122617 73.31294592 25.95876408 73.31969929 C22.92273051 73.32304068 19.88678416 73.31640568 16.85076714 73.30657005 C15.39351292 73.30271918 13.936249 73.30156937 12.47899055 73.3031559 C10.44178214 73.30352663 8.40458655 73.28942839 6.36743164 73.2746582 C5.20764297 73.27005081 4.04785431 73.26544342 2.85292053 73.26069641 C-0 73 -0 73 -3 71 C-4.9896995 70.60986284 -6.99019869 70.26797351 -9 70 C-9 69.01 -9 68.02 -9 67 C-9.78375 67.04125 -10.5675 67.0825 -11.375 67.125 C-14 67 -14 67 -16 65 C-17.32 65 -18.64 65 -20 65 C-20 65.66 -20 66.32 -20 67 C-21.65 67 -23.3 67 -25 67 C-26.35439668 64.29120665 -26.06501451 61.99066732 -26 59 C-25.01 59 -24.02 59 -23 59 C-23 58.01 -23 57.02 -23 56 C-22.34 56 -21.68 56 -21 56 C-20.67 55.01 -20.34 54.02 -20 53 C-19.34 53 -18.68 53 -18 53 C-17.67 52.01 -17.34 51.02 -17 50 C-16.34 50 -15.68 50 -15 50 C-15 49.34 -15 48.68 -15 48 C-9.70588235 44 -9.70588235 44 -6 44 C-6 43.34 -6 42.68 -6 42 C-5.01 42 -4.02 42 -3 42 C-3 41.01 -3 40.02 -3 39 C-2.05125 38.855625 -1.1025 38.71125 -0.125 38.5625 C2.8934494 38.17064601 2.8934494 38.17064601 5 37 C4.979375 35.88625 4.95875 34.7725 4.9375 33.625 C5 30 5 30 6 28 C22.5 27.67 39 27.34 56 27 C56 26.67 56 26.34 56 26 C50.39 25.67 44.78 25.34 39 25 C39 24.34 39 23.68 39 23 C23.82 23 8.64 23 -7 23 C-7 23.66 -7 24.32 -7 25 C-10.3 25 -13.6 25 -17 25 C-17.33 25.99 -17.66 26.98 -18 28 C-20.84937793 29.83174295 -23.68437443 30.44739574 -27 31 C-27 31.66 -27 32.32 -27 33 C-28.98 33.495 -28.98 33.495 -31 34 C-31 34.66 -31 35.32 -31 36 C-37.14219114 38.16783217 -37.14219114 38.16783217 -40.875 37.4375 C-43 36 -43 36 -43.8125 33.375 C-43.9053125 32.199375 -43.9053125 32.199375 -44 31 C-44.639375 30.87625 -45.27875 30.7525 -45.9375 30.625 C-46.9584375 30.315625 -46.9584375 30.315625 -48 30 C-49.60725635 26.78548731 -49.05748185 23.56387464 -49 20 C-48.01 19.67 -47.02 19.34 -46 19 C-45.67 18.01 -45.34 17.02 -45 16 C-44.34 16 -43.68 16 -43 16 C-43 15.34 -43 14.68 -43 14 C-42.01 13.67 -41.02 13.34 -40 13 C-39.67 12.34 -39.34 11.68 -39 11 C-37.68352881 10.30062468 -36.34977849 9.63270867 -35 9 C-34.67 8.67 -34.34 8.34 -34 8 C-32.33382885 7.95936168 -30.66611905 7.957279 -29 8 C-28.67 7.01 -28.34 6.02 -28 5 C-25.69 5 -23.38 5 -21 5 C-20.67 5.99 -20.34 6.98 -20 8 C-19.01 8 -18.02 8 -17 8 C-17 7.01 -17 6.02 -17 5 C-15.02 5 -13.04 5 -11 5 C-11 4.34 -11 3.68 -11 3 C-8.70370006 1.85185003 -6.92301914 1.69230191 -4.375 1.4375 C-3.55773437 1.35371094 -2.74046875 1.26992187 -1.8984375 1.18359375 C-0.95871094 1.09271484 -0.95871094 1.09271484 0 1 C0 0.67 0 0.34 0 0 Z M64 7 C64 7.33 64 7.66 64 8 C66.31 8 68.62 8 71 8 C71 7.67 71 7.34 71 7 C68.69 7 66.38 7 64 7 Z M55 39 C55 39.99 55 40.98 55 42 C58.96 42.33 62.92 42.66 67 43 C67 41.68 67 40.36 67 39 C63.04 39 59.08 39 55 39 Z " fill="#020202" transform="translate(71,96)"/>
<path d="M0 0 C6.71700347 -0.31985731 11.75726932 0.5206176 18 3 C18 3.66 18 4.32 18 5 C18.70125 5.103125 19.4025 5.20625 20.125 5.3125 C23.39137647 6.09359003 26.0471852 7.42058743 29 9 C29 9.66 29 10.32 29 11 C29.99 11 30.98 11 32 11 C32 11.99 32 12.98 32 14 C32.99 14 33.98 14 35 14 C37.53294542 16.43913263 37.98267553 17.69970913 38.1875 21.25 C38.125625 22.1575 38.06375 23.065 38 24 C37.01 24.33 36.02 24.66 35 25 C35 25.99 35 26.98 35 28 C35.66 28 36.32 28 37 28 C38.1898306 30.3796612 38.13349966 31.91485735 38.125 34.5625 C38.12757813 35.36816406 38.13015625 36.17382812 38.1328125 37.00390625 C38 39 38 39 37 40 C33.1638778 40.14475933 29.67692213 40.17661508 26 39 C26 38.34 26 37.68 26 37 C24.515 36.505 24.515 36.505 23 36 C23 35.34 23 34.68 23 34 C21.35 34 19.7 34 18 34 C18 33.01 18 32.02 18 31 C16.35 31 14.7 31 13 31 C12.505 29.515 12.505 29.515 12 28 C10.35 28 8.7 28 7 28 C7 27.34 7 26.68 7 26 C0.07 25.505 0.07 25.505 -7 25 C-7 24.34 -7 23.68 -7 23 C-8.98 23.33 -10.96 23.66 -13 24 C-13 24.33 -13 24.66 -13 25 C-21.34332544 26.19190363 -29.59323022 26.09283549 -38 26 C-38 26.66 -38 27.32 -38 28 C-44.435 28.495 -44.435 28.495 -51 29 C-51 29.33 -51 29.66 -51 30 C-49.1605481 30.02187378 -49.1605481 30.02187378 -47.28393555 30.04418945 C-42.73822734 30.10212083 -38.19301719 30.17935381 -33.64770508 30.26245117 C-31.67968829 30.29572486 -29.71157551 30.32374915 -27.7434082 30.34643555 C-24.91576188 30.37993678 -22.08899718 30.43224963 -19.26171875 30.48828125 C-18.38037766 30.49467117 -17.49903656 30.5010611 -16.59098816 30.50764465 C-15.77036392 30.52743881 -14.94973969 30.54723297 -14.10424805 30.56762695 C-13.02169991 30.58428154 -13.02169991 30.58428154 -11.9172821 30.60127258 C-9.44033989 31.11638967 -8.5182053 32.00606194 -7 34 C-7 35.66666667 -7 37.33333333 -7 39 C-4.08235 40.9451 -2.37462715 41.45276317 1 42 C1 42.99 1 43.98 1 45 C1.99 45 2.98 45 4 45 C4 45.66 4 46.32 4 47 C5.65 47.33 7.3 47.66 9 48 C9 48.66 9 49.32 9 50 C10.485 50.495 10.485 50.495 12 51 C12 51.66 12 52.32 12 53 C12.99 53 13.98 53 15 53 C15 53.99 15 54.98 15 56 C15.99 56 16.98 56 18 56 C18 56.99 18 57.98 18 59 C19.485 59.495 19.485 59.495 21 60 C21.04241723 62.33294775 21.04092937 64.66702567 21 67 C20 68 20 68 17.49609375 68.09765625 C16.48675781 68.08605469 15.47742188 68.07445312 14.4375 68.0625 C13.42558594 68.05347656 12.41367187 68.04445313 11.37109375 68.03515625 C10.58863281 68.02355469 9.80617188 68.01195312 9 68 C9 68.66 9 69.32 9 70 C8.01 70 7.02 70 6 70 C6 70.66 6 71.32 6 72 C-1.44384024 75.72192012 -12.98259387 74.14732497 -21.140625 74.1328125 C-22.95116364 74.13424759 -22.95116364 74.13424759 -24.79827881 74.13571167 C-27.32938693 74.13638744 -29.86049684 74.13457559 -32.39160156 74.13037109 C-36.2532948 74.12499541 -40.11487274 74.13034632 -43.9765625 74.13671875 C-46.44791692 74.13605823 -48.91927127 74.1347776 -51.390625 74.1328125 C-52.5366217 74.13483673 -53.68261841 74.13686096 -54.86334229 74.13894653 C-60.67156928 74.12202286 -66.25658371 73.87923688 -72 73 C-72.49586777 66.67768595 -72.49586777 66.67768595 -70.125 63.4375 C-69.42375 62.633125 -68.7225 61.82875 -68 61 C-66.74443113 57.82078213 -66.74443113 57.82078213 -66 55 C-67.98 54.34 -69.96 53.68 -72 53 C-72 51.35 -72 49.7 -72 48 C-72.99 48 -73.98 48 -75 48 C-74.95875 48.928125 -74.9175 49.85625 -74.875 50.8125 C-75 54 -75 54 -77 57 C-76.34 57 -75.68 57 -75 57 C-75 60.96 -75 64.92 -75 69 C-79 70 -79 70 -81.1171875 69.296875 C-85.60674863 66.2044802 -87.7551785 59.09245158 -89 54 C-88.75 51.5625 -88.75 51.5625 -88 49 C-87.649375 47.741875 -87.29875 46.48375 -86.9375 45.1875 C-86.628125 44.135625 -86.31875 43.08375 -86 42 C-85.34 42 -84.68 42 -84 42 C-83.67 41.01 -83.34 40.02 -83 39 C-82.01 39 -81.02 39 -80 39 C-80 38.34 -80 37.68 -80 37 C-79.01 37 -78.02 37 -77 37 C-77 35.35 -77 33.7 -77 32 C-78.98 31.34 -80.96 30.68 -83 30 C-83 29.34 -83 28.68 -83 28 C-83.58394531 27.88527344 -84.16789063 27.77054688 -84.76953125 27.65234375 C-87.16070294 26.95299931 -88.68420874 26.02694502 -90.6875 24.5625 C-91.59048828 23.91474609 -91.59048828 23.91474609 -92.51171875 23.25390625 C-94 22 -94 22 -95 20 C-95.13415472 17.3276379 -95.04318541 14.67749512 -95 12 C-92.44253977 10.72126988 -90.52074383 10.82404532 -87.66015625 10.75390625 C-86.0659082 10.70459961 -86.0659082 10.70459961 -84.43945312 10.65429688 C-82.19215731 10.59320786 -79.94475538 10.53590248 -77.69726562 10.48242188 C-76.10108398 10.43118164 -76.10108398 10.43118164 -74.47265625 10.37890625 C-73.00711304 10.34132202 -73.00711304 10.34132202 -71.51196289 10.30297852 C-68.75427 10.16195556 -68.75427 10.16195556 -66 8 C-62.59093658 7.68220595 -59.22409652 7.53702783 -55.8046875 7.43359375 C-52.04860299 7.27420271 -50.19919944 7.13279963 -47 5 C-44.08203125 4.5859375 -44.08203125 4.5859375 -40.8125 4.375 C-39.72582031 4.30023438 -38.63914063 4.22546875 -37.51953125 4.1484375 C-36.68808594 4.09945312 -35.85664063 4.05046875 -35 4 C-35 3.67 -35 3.34 -35 3 C-15.78301887 1.1509434 -15.78301887 1.1509434 -7 3 C-7 3.66 -7 4.32 -7 5 C-4.55519921 4.81171228 -4.55519921 4.81171228 -2 4 C-0.81531734 2.00613134 -0.81531734 2.00613134 0 0 Z M-72 40 C-72 41.98 -72 43.96 -72 46 C-70.700625 45.87625 -69.40125 45.7525 -68.0625 45.625 C-67.33160156 45.55539063 -66.60070312 45.48578125 -65.84765625 45.4140625 C-65.23792969 45.27742188 -64.62820312 45.14078125 -64 45 C-63.67 44.34 -63.34 43.68 -63 43 C-49.8 42.67 -36.6 42.34 -23 42 C-23 41.67 -23 41.34 -23 41 C-39.34378294 40.11680621 -55.633912 39.87153777 -72 40 Z " fill="#020202" transform="translate(286,93)"/>
<path d="M0 0 C2.64 0 5.28 0 8 0 C9.49297212 2.98594424 9.11755228 5.70853624 9 9 C8.67 9.66 8.34 10.32 8 11 C7.34 11 6.68 11 6 11 C6 11.99 6 12.98 6 14 C5.01 14 4.02 14 3 14 C3 14.99 3 15.98 3 17 C2.01 17 1.02 17 0 17 C0 17.99 0 18.98 0 20 C-0.99 20 -1.98 20 -3 20 C-3 20.99 -3 21.98 -3 23 C-3.99 23 -4.98 23 -6 23 C-6.33 23.99 -6.66 24.98 -7 26 C-8.32 26 -9.64 26 -11 26 C-11 26.66 -11 27.32 -11 28 C-12.32 28 -13.64 28 -15 28 C-15 28.66 -15 29.32 -15 30 C-15.928125 30.28875 -16.85625 30.5775 -17.8125 30.875 C-21.09791667 31.8875 -21.09791667 31.8875 -24 34 C-26.04296875 34.1953125 -26.04296875 34.1953125 -28.1875 34.125 C-29.445625 34.08375 -30.70375 34.0425 -32 34 C-32 34.66 -32 35.32 -32 36 C-34.64 36.66 -37.28 37.32 -40 38 C-40 38.33 -40 38.66 -40 39 C-46.65637843 40.23839599 -53.2471936 40.09139136 -60 40 C-60 40.66 -60 41.32 -60 42 C-60.66531738 42.01981934 -61.33063477 42.03963867 -62.01611328 42.06005859 C-65.05278268 42.15576418 -68.08880678 42.26525808 -71.125 42.375 C-72.17171875 42.4059375 -73.2184375 42.436875 -74.296875 42.46875 C-75.82441406 42.52675781 -75.82441406 42.52675781 -77.3828125 42.5859375 C-78.31496582 42.6173584 -79.24711914 42.6487793 -80.20751953 42.68115234 C-83.0477415 42.89588373 -83.0477415 42.89588373 -85.77050781 44.0057373 C-89.19308745 45.05944577 -91.89243557 45.24139584 -95.46435547 45.22705078 C-96.72520966 45.22689972 -97.98606384 45.22674866 -99.28512573 45.22659302 C-100.64581463 45.21638217 -102.00650188 45.20595022 -103.3671875 45.1953125 C-104.77108559 45.19157824 -106.1749863 45.18873322 -107.57888794 45.18673706 C-111.25813097 45.17913304 -114.93721389 45.1595127 -118.61639404 45.1373291 C-122.37705317 45.11680071 -126.13773839 45.10772044 -129.8984375 45.09765625 C-137.26569767 45.07626343 -144.63282632 45.04216698 -152 45 C-151.95875 45.94875 -151.9175 46.8975 -151.875 47.875 C-152 51 -152 51 -154 53 C-159.16184971 53.54913295 -159.16184971 53.54913295 -161.8125 51.8125 C-163.26637476 49.593428 -163.52329462 47.58782921 -164 45 C-164.66 44.67 -165.32 44.34 -166 44 C-166 38.72 -166 33.44 -166 28 C-165.01 28 -164.02 28 -163 28 C-162.67 27.01 -162.34 26.02 -162 25 C-159.625 24.875 -159.625 24.875 -157 25 C-155 27 -155 27 -155 31 C-130.58 30.67 -106.16 30.34 -81 30 C-81 29.67 -81 29.34 -81 29 C-75.51730931 27.84335263 -70.19660726 27.88583745 -64.625 27.9375 C-63.69816406 27.94201172 -62.77132812 27.94652344 -61.81640625 27.95117188 C-59.54420291 27.96288426 -57.27213612 27.97928628 -55 28 C-55 27.34 -55 26.68 -55 26 C-52.03 25.34 -49.06 24.68 -46 24 C-46 23.67 -46 23.34 -46 23 C-44.19402344 22.81824219 -44.19402344 22.81824219 -42.3515625 22.6328125 C-40.77599234 22.46400141 -39.20047408 22.29470541 -37.625 22.125 C-36.8309375 22.04636719 -36.036875 21.96773438 -35.21875 21.88671875 C-30.6406878 21.53523142 -30.6406878 21.53523142 -27 19 C-24.375 18.875 -24.375 18.875 -22 19 C-22 18.34 -22 17.68 -22 17 C-20.35 17 -18.7 17 -17 17 C-16.67 16.01 -16.34 15.02 -16 14 C-13.44829129 12.4161808 -10.92393881 11.62655832 -8 11 C-8 10.34 -8 9.68 -8 9 C-6.625 7.375 -6.625 7.375 -5 6 C-4.34 6 -3.68 6 -3 6 C-3 5.01 -3 4.02 -3 3 C-2.01 3 -1.02 3 0 3 C0 2.01 0 1.02 0 0 Z " fill="#000000" transform="translate(259,242)"/>
<path d="M0 0 C2.64 0 5.28 0 8 0 C8 2.64 8 5.28 8 8 C7.01 8.33 6.02 8.66 5 9 C4.67 9.99 4.34 10.98 4 12 C3.34870203 13.34090759 2.68486725 14.67592331 2 16 C1.34 16 0.68 16 0 16 C-0.12375 16.9075 -0.2475 17.815 -0.375 18.75 C-0.92109677 21.58970323 -1.57263803 23.52590591 -3 26 C-3.99 26 -4.98 26 -6 26 C-6 27.65 -6 29.3 -6 31 C-6.66 31 -7.32 31 -8 31 C-8.04898437 31.60328125 -8.09796875 32.2065625 -8.1484375 32.828125 C-8.22320312 33.62734375 -8.29796875 34.4265625 -8.375 35.25 C-8.44460938 36.03890625 -8.51421875 36.8278125 -8.5859375 37.640625 C-9.02541008 40.14478952 -9.61427885 41.86957156 -11 44 C-12.485 44.495 -12.485 44.495 -14 45 C-13.938125 46.134375 -13.87625 47.26875 -13.8125 48.4375 C-13.78619778 53.33847991 -15.23987606 57.473967 -17 62 C-17.99 62 -18.98 62 -20 62 C-19.97679687 62.75925781 -19.95359375 63.51851563 -19.9296875 64.30078125 C-19.90261719 65.79158203 -19.90261719 65.79158203 -19.875 67.3125 C-19.85179687 68.29863281 -19.82859375 69.28476562 -19.8046875 70.30078125 C-20 73 -20 73 -22 76 C-22.45601261 78.50896686 -22.45601261 78.50896686 -22.625 81.1875 C-22.69976562 82.08855469 -22.77453125 82.98960937 -22.8515625 83.91796875 C-22.90054687 84.60503906 -22.94953125 85.29210937 -23 86 C-23.66 86 -24.32 86 -25 86 C-24.98839844 86.63808594 -24.97679687 87.27617187 -24.96484375 87.93359375 C-24.95582031 88.75988281 -24.94679688 89.58617187 -24.9375 90.4375 C-24.92589844 91.26121094 -24.91429687 92.08492188 -24.90234375 92.93359375 C-25 95 -25 95 -26 96 C-28.67058851 96.14115161 -31.32432238 96.04247107 -34 96 C-34.02684312 93.18743719 -34.04676188 90.37512759 -34.0625 87.5625 C-34.07087891 86.76005859 -34.07925781 85.95761719 -34.08789062 85.13085938 C-34.0965143 83.08704779 -34.0522815 81.04316098 -34 79 C-33.505 78.505 -33.505 78.505 -33 78 C-32.599617 75.14471393 -32.2481773 72.30263513 -31.9375 69.4375 C-31.84662109 68.63119141 -31.75574219 67.82488281 -31.66210938 66.99414062 C-31.43752551 64.99652623 -31.21826764 62.9983144 -31 61 C-30.67 61 -30.34 61 -30 61 C-29.34 58.03 -28.68 55.06 -28 52 C-27.34 52 -26.68 52 -26 52 C-26.020625 50.88625 -26.04125 49.7725 -26.0625 48.625 C-26 45 -26 45 -25 43 C-24.34 43 -23.68 43 -23 43 C-23 41.02 -23 39.04 -23 37 C-22.01 36.505 -22.01 36.505 -21 36 C-20.34444881 33.47266765 -20.34444881 33.47266765 -20 31 C-19.34 31 -18.68 31 -18 31 C-17.67 28.69 -17.34 26.38 -17 24 C-16.34 24 -15.68 24 -15 24 C-14.67 22.68 -14.34 21.36 -14 20 C-13.34 20 -12.68 20 -12 20 C-11.896875 19.071875 -11.79375 18.14375 -11.6875 17.1875 C-10.99468505 13.97535795 -10.6120831 12.88069983 -8 11 C-7.34 11 -6.68 11 -6 11 C-6 9.35 -6 7.7 -6 6 C-5.01 6 -4.02 6 -3 6 C-3 5.01 -3 4.02 -3 3 C-2.34 3 -1.68 3 -1 3 C-0.67 2.01 -0.34 1.02 0 0 Z " fill="#020202" transform="translate(307,208)"/>
<path d="M0 0 C4.05997773 0.0292611 6.80745935 1.14697561 10.3125 3.25 C10.3125 3.91 10.3125 4.57 10.3125 5.25 C11.9625 5.25 13.6125 5.25 15.3125 5.25 C15.3125 5.91 15.3125 6.57 15.3125 7.25 C16.3025 7.58 17.2925 7.91 18.3125 8.25 C18.8075 9.24 18.8075 9.24 19.3125 10.25 C21.32919827 11.38350534 21.32919827 11.38350534 23.3125 12.25 C23.3125 13.9 23.3125 15.55 23.3125 17.25 C20.3425 17.91 17.3725 18.57 14.3125 19.25 C14.3125 19.91 14.3125 20.57 14.3125 21.25 C8.0425 21.25 1.7725 21.25 -4.6875 21.25 C-5.0175 17.95 -5.3475 14.65 -5.6875 11.25 C-6.0175 11.58 -6.3475 11.91 -6.6875 12.25 C-9.02047433 12.29092937 -11.35455225 12.29241723 -13.6875 12.25 C-13.73004356 10.25045254 -13.72830783 8.24958364 -13.6875 6.25 C-12.6875 5.25 -12.6875 5.25 -9.125 5.1875 C-7.990625 5.208125 -6.85625 5.22875 -5.6875 5.25 C-5.543125 4.610625 -5.39875 3.97125 -5.25 3.3125 C-4.28540717 -0.22434037 -3.97359006 0.26939594 0 0 Z " fill="#3A3A3A" transform="translate(275.6875,138.75)"/>
<path d="M0 0 C0 5.61 0 11.22 0 17 C-14.16104461 17.26224157 -14.16104461 17.26224157 -18 15 C-19.99110401 14.61709538 -21.99100513 14.27395385 -24 14 C-23.67 12.02 -23.34 10.04 -23 8 C-20.69 7.34 -18.38 6.68 -16 6 C-16 4.68 -16 3.36 -16 2 C-10.52475681 -0.30536555 -5.84675143 -0.15802031 0 0 Z " fill="#FAFAFA" transform="translate(81,142)"/>
<path d="M0 0 C2.5 0.125 2.5 0.125 3.5 1.125 C3.57325168 3.98767567 3.59238205 6.825719 3.5625 9.6875 C3.55798828 10.49380859 3.55347656 11.30011719 3.54882812 12.13085938 C3.53700518 14.12893756 3.51906914 16.12697783 3.5 18.125 C-1.45 18.125 -6.4 18.125 -11.5 18.125 C-11.5 18.785 -11.5 19.445 -11.5 20.125 C-13.15 20.125 -14.8 20.125 -16.5 20.125 C-16.83 19.135 -17.16 18.145 -17.5 17.125 C-16.51 17.125 -15.52 17.125 -14.5 17.125 C-14.5 16.135 -14.5 15.145 -14.5 14.125 C-11.16666667 11.125 -11.16666667 11.125 -8.5 11.125 C-8.4175 10.58875 -8.335 10.0525 -8.25 9.5 C-6.93057658 5.32182585 -4.68127586 0.23406379 0 0 Z " fill="#EBEAEB" transform="translate(237.5,141.875)"/>
<path d="M0 0 C6.96214577 -0.88878457 10.54858338 1.92200229 16 6 C16.99 6.66 17.98 7.32 19 8 C18.375 9.9375 18.375 9.9375 17 12 C11.60843997 13.65894155 5.58407719 13.0680985 0 13 C0 8.71 0 4.42 0 0 Z " fill="#F4F4F4" transform="translate(275,143)"/>
<path d="M0 0 C1.65 0 3.3 0 5 0 C5.29132813 0.58007812 5.58265625 1.16015625 5.8828125 1.7578125 C8.6906971 7.10868693 11.6420194 10.84471617 16 15 C16 15.66 16 16.32 16 17 C10.06 17 4.12 17 -2 17 C-2 15.35 -2 13.7 -2 12 C-1.34 12 -0.68 12 0 12 C0 8.04 0 4.08 0 0 Z " fill="#EFEFEF" transform="translate(114,144)"/>
<path d="M0 0 C2.97 0 5.94 0 9 0 C8.67 1.32 8.34 2.64 8 4 C8 3.34 8 2.68 8 2 C6.35 2 4.7 2 3 2 C3 5.96 3 9.92 3 14 C2.34 14 1.68 14 1 14 C1 15.65 1 17.3 1 19 C6.94 19 12.88 19 19 19 C17.68 17.02 16.36 15.04 15 13 C17.97 13.495 17.97 13.495 21 14 C21 14.66 21 15.32 21 16 C21.99 16 22.98 16 24 16 C24 17.65 24 19.3 24 21 C19.06615092 22.36598301 14.29674226 21.92765321 9.25 21.625 C8.37472656 21.58117187 7.49945313 21.53734375 6.59765625 21.4921875 C0.13127309 21.13127309 0.13127309 21.13127309 -1 20 C-1.01662231 18.5086609 -0.963192 17.01639195 -0.87890625 15.52734375 C-0.83056641 14.62822266 -0.78222656 13.72910156 -0.73242188 12.80273438 C-0.67634766 11.85720703 -0.62027344 10.91167969 -0.5625 9.9375 C-0.51029297 8.98810547 -0.45808594 8.03871094 -0.40429688 7.06054688 C-0.27418856 4.70676919 -0.13768455 2.35334667 0 0 Z " fill="#393939" transform="translate(111,142)"/>
<path d="M0 0 C0 5.61 0 11.22 0 17 C-14.16104461 17.26224157 -14.16104461 17.26224157 -18 15 C-19.99110401 14.61709538 -21.99100513 14.27395385 -24 14 C-23.67 12.02 -23.34 10.04 -23 8 C-20.69 7.34 -18.38 6.68 -16 6 C-16 4.68 -16 3.36 -16 2 C-10.52475681 -0.30536555 -5.84675143 -0.15802031 0 0 Z M-12.3125 5.5 C-13.19550781 5.9640625 -14.07851562 6.428125 -14.98828125 6.90625 C-15.65214844 7.2671875 -16.31601563 7.628125 -17 8 C-17 8.66 -17 9.32 -17 10 C-17.99 10 -18.98 10 -20 10 C-20 10.99 -20 11.98 -20 13 C-16.01606389 14.84566532 -12.55623317 15.36022829 -8.1875 15.625 C-5.1246875 15.810625 -5.1246875 15.810625 -2 16 C-2 11.71 -2 7.42 -2 3 C-6.83487504 3 -8.26649267 3.34212942 -12.3125 5.5 Z " fill="#A4A4A4" transform="translate(81,142)"/>
<path d="M0 0 C2.5 0.125 2.5 0.125 3.5 1.125 C3.57325168 3.98767567 3.59238205 6.825719 3.5625 9.6875 C3.55798828 10.49380859 3.55347656 11.30011719 3.54882812 12.13085938 C3.53700518 14.12893756 3.51906914 16.12697783 3.5 18.125 C-1.45 18.125 -6.4 18.125 -11.5 18.125 C-11.5 18.785 -11.5 19.445 -11.5 20.125 C-13.15 20.125 -14.8 20.125 -16.5 20.125 C-16.83 19.135 -17.16 18.145 -17.5 17.125 C-16.51 17.125 -15.52 17.125 -14.5 17.125 C-14.5 16.135 -14.5 15.145 -14.5 14.125 C-11.16666667 11.125 -11.16666667 11.125 -8.5 11.125 C-8.4175 10.58875 -8.335 10.0525 -8.25 9.5 C-6.93057658 5.32182585 -4.68127586 0.23406379 0 0 Z M-1.5 2.125 C-2.428125 3.8265625 -2.428125 3.8265625 -3.375 5.5625 C-5.25 9 -5.25 9 -7.5 10.125 C-7.5 10.785 -7.5 11.445 -7.5 12.125 C-9.15 12.785 -10.8 13.445 -12.5 14.125 C-12.5 15.115 -12.5 16.105 -12.5 17.125 C-7.55 17.125 -2.6 17.125 2.5 17.125 C2.17 12.175 1.84 7.225 1.5 2.125 C0.51 2.125 -0.48 2.125 -1.5 2.125 Z " fill="#7E7E7E" transform="translate(237.5,141.875)"/>
<path d="M0 0 C3.3 0 6.6 0 10 0 C10 0.33 10 0.66 10 1 C7.69 1 5.38 1 3 1 C3 5.29 3 9.58 3 14 C11.415 13.01 11.415 13.01 20 12 C20.33 10.68 20.66 9.36 21 8 C21.99 8.33 22.98 8.66 24 9 C22.52276248 12.89453528 20.75534706 14.26068136 17 16 C14.05041702 16.35228031 11.1525229 16.28442866 8.1875 16.1875 C7.39923828 16.17396484 6.61097656 16.16042969 5.79882812 16.14648438 C3.86558831 16.11133456 1.93270318 16.05753361 0 16 C0 10.72 0 5.44 0 0 Z " fill="#9B9B9B" transform="translate(272,142)"/>
<path d="M0 0 C1.65 0 3.3 0 5 0 C4.67 0.66 4.34 1.32 4 2 C3.01 1.67 2.02 1.34 1 1 C1 5.29 1 9.58 1 14 C5.455 13.505 5.455 13.505 10 13 C10.33 12.01 10.66 11.02 11 10 C12.70884005 11.62339805 14.37446717 13.29319053 16 15 C16 15.66 16 16.32 16 17 C10.06 17 4.12 17 -2 17 C-2 15.35 -2 13.7 -2 12 C-1.34 12 -0.68 12 0 12 C0 8.04 0 4.08 0 0 Z " fill="#B1B1B1" transform="translate(114,144)"/>
<path d="M0 0 C0.33 0.66 0.66 1.32 1 2 C4.465 1.505 4.465 1.505 8 1 C7.01 1.495 7.01 1.495 6 2 C6 2.99 6 3.98 6 5 C5.01 5 4.02 5 3 5 C3.33 5.66 3.66 6.32 4 7 C10.6 7 17.2 7 24 7 C24.33 5.35 24.66 3.7 25 2 C25.33 1.34 25.66 0.68 26 0 C27 1 27 1 27.1875 3.9375 C27 7 27 7 25 9 C22.58569336 9.24291992 22.58569336 9.24291992 19.58984375 9.23046875 C18.51798828 9.22853516 17.44613281 9.22660156 16.34179688 9.22460938 C15.21837891 9.21236328 14.09496094 9.20011719 12.9375 9.1875 C11.24657227 9.1865332 11.24657227 9.1865332 9.52148438 9.18554688 C1.14013317 9.14013317 1.14013317 9.14013317 0 8 C-0.14115161 5.32941149 -0.04247107 2.67567762 0 0 Z " fill="#1A1A1A" transform="translate(217,154)"/>
<path d="M0 0 C2.97 0 5.94 0 9 0 C8.67 1.32 8.34 2.64 8 4 C8 3.34 8 2.68 8 2 C6.35 2 4.7 2 3 2 C3 5.96 3 9.92 3 14 C2.34 14 1.68 14 1 14 C1 15.65 1 17.3 1 19 C0.67 19 0.34 19 0 19 C0 12.73 0 6.46 0 0 Z " fill="#494949" transform="translate(111,142)"/>
<path d="M0 0 C0 5.61 0 11.22 0 17 C-4.62 17 -9.24 17 -14 17 C-14 16.67 -14 16.34 -14 16 C-9.71 16 -5.42 16 -1 16 C-1 11.05 -1 6.1 -1 1 C-6.68904224 1.19588129 -6.68904224 1.19588129 -11.3125 4.0625 C-11.869375 4.701875 -12.42625 5.34125 -13 6 C-13.99 6 -14.98 6 -16 6 C-16 4.68 -16 3.36 -16 2 C-10.52475681 -0.30536555 -5.84675143 -0.15802031 0 0 Z " fill="#757575" transform="translate(81,142)"/>
<path d="M0 0 C1.95825873 -0.02694851 3.91662226 -0.04637218 5.875 -0.0625 C6.96554687 -0.07410156 8.05609375 -0.08570313 9.1796875 -0.09765625 C12 0 12 0 14 1 C14 1.66 14 2.32 14 3 C15.65 3 17.3 3 19 3 C19 3.66 19 4.32 19 5 C19.99 5.33 20.98 5.66 22 6 C22.33 6.99 22.66 7.98 23 9 C18.00786149 8.53198701 13.87036007 6.08284263 10 3 C10 2.34 10 1.68 10 1 C6.7 1 3.4 1 0 1 C0 0.67 0 0.34 0 0 Z " fill="#4D4D4D" transform="translate(272,141)"/>
<path d="M0 0 C1.32 0.33 2.64 0.66 4 1 C4 2.65 4 4.3 4 6 C1.03 6.66 -1.94 7.32 -5 8 C-5 8.66 -5 9.32 -5 10 C-11.27 10 -17.54 10 -24 10 C-24 9.67 -24 9.34 -24 9 C-22.37191406 8.94392578 -22.37191406 8.94392578 -20.7109375 8.88671875 C-19.26559261 8.82102125 -17.82028161 8.75457524 -16.375 8.6875 C-15.66214844 8.66494141 -14.94929688 8.64238281 -14.21484375 8.61914062 C-9.49160583 8.38081211 -6.11084599 7.55047914 -2 5 C-0.44648705 2.67800407 -0.44648705 2.67800407 0 0 Z " fill="#2C2C2C" transform="translate(295,150)"/>
<path d="M0 0 C1.65 0 3.3 0 5 0 C5 3.96 5 7.92 5 12 C4.67 12 4.34 12 4 12 C4 8.7 4 5.4 4 2 C3.01 2 2.02 2 1 2 C0.566875 2.86625 0.566875 2.86625 0.125 3.75 C-0.91666667 5.83333333 -1.95833333 7.91666667 -3 10 C-3.66 10 -4.32 10 -5 10 C-5 10.66 -5 11.32 -5 12 C-6.65 12.66 -8.3 13.32 -10 14 C-9.34 13.01 -8.68 12.02 -8 11 C-7.34 11 -6.68 11 -6 11 C-5.9175 10.46375 -5.835 9.9275 -5.75 9.375 C-4.64068829 5.86217957 -2.617408 2.617408 0 0 Z " fill="#939393" transform="translate(235,142)"/>
<path d="M0 0 C0.33 0 0.66 0 1 0 C1.19384179 2.81219705 1.38036603 5.62454196 1.5625 8.4375 C1.61857422 9.23994141 1.67464844 10.04238281 1.73242188 10.86914062 C1.8616295 12.91062111 1.9351273 14.95546369 2 17 C1.67 17.33 1.34 17.66 1 18 C-1.82698235 17.93514743 -4.61790777 17.80823914 -7.4375 17.625 C-8.22705078 17.58117187 -9.01660156 17.53734375 -9.83007812 17.4921875 C-15.7412992 17.1293504 -15.7412992 17.1293504 -18 16 C-18 15.34 -18 14.68 -18 14 C-17.48953125 14.15339844 -16.9790625 14.30679688 -16.453125 14.46484375 C-13.2250662 15.16905403 -10.04581999 15.34888204 -6.75 15.5625 C-4.5225 15.706875 -2.295 15.85125 0 16 C0 10.72 0 5.44 0 0 Z " fill="#3C3C3C" transform="translate(81,143)"/>
<path d="M0 0 C2.01822917 0.06510417 4.03645833 0.13020833 6.0546875 0.1953125 C6.0546875 5.1453125 6.0546875 10.0953125 6.0546875 15.1953125 C5.7246875 15.1953125 5.3946875 15.1953125 5.0546875 15.1953125 C5.0546875 10.9053125 5.0546875 6.6153125 5.0546875 2.1953125 C3.0128125 2.8759375 3.0128125 2.8759375 0.9296875 3.5703125 C-2.6953125 4.77864583 -6.3203125 5.98697917 -9.9453125 7.1953125 C-8.56672399 4.43813548 -6.57064935 3.73209504 -3.9453125 2.1953125 C-1.9453125 0.1953125 -1.9453125 0.1953125 0 0 Z " fill="#C8C8C8" transform="translate(73.9453125,142.8046875)"/>
<path d="M0 0 C1.98 0 3.96 0 6 0 C6 1.98 6 3.96 6 6 C4.02 6 2.04 6 0 6 C0 4.02 0 2.04 0 0 Z " fill="#7E7E7E" transform="translate(100,145)"/>
<path d="M0 0 C0.66 0 1.32 0 2 0 C1.67 1.65 1.34 3.3 1 5 C2.98 5 4.96 5 7 5 C7 5.33 7 5.66 7 6 C5.02 6 3.04 6 1 6 C0.67 7.32 0.34 8.64 0 10 C-0.66 10 -1.32 10 -2 10 C-2.1953125 3.9453125 -2.1953125 3.9453125 -2 2 C-1.34 1.34 -0.68 0.68 0 0 Z " fill="#464646" transform="translate(56,151)"/>
<path d="M0 0 C1.93681161 -0.08107583 3.8745934 -0.13922475 5.8125 -0.1875 C6.89144531 -0.22230469 7.97039062 -0.25710937 9.08203125 -0.29296875 C12 0 12 0 13.88671875 1.51171875 C14.25410156 2.00285156 14.62148437 2.49398437 15 3 C12.87436897 2.88623383 10.7494739 2.75864369 8.625 2.625 C7.44164063 2.55539063 6.25828125 2.48578125 5.0390625 2.4140625 C2 2 2 2 0 0 Z " fill="#E3E3E3" transform="translate(64,155)"/>
<path d="M0 0 C1.32 0 2.64 0 4 0 C4 1.65 4 3.3 4 5 C2.35 5 0.7 5 -1 5 C-0.67 3.35 -0.34 1.7 0 0 Z " fill="#909090" transform="translate(264,145)"/>
<path d="M0 0 C0.99 0 1.98 0 3 0 C3 3.3 3 6.6 3 10 C2.34 10 1.68 10 1 10 C0.67 6.7 0.34 3.4 0 0 Z " fill="#DADADA" transform="translate(236,144)"/>
<path d="M0 0 C1.32 0.66 2.64 1.32 4 2 C3.34 3.32 2.68 4.64 2 6 C0.68 6 -0.64 6 -2 6 C-2 5.34 -2 4.68 -2 4 C-1.34 3.67 -0.68 3.34 0 3 C0 2.01 0 1.02 0 0 Z " fill="#D9D9D9" transform="translate(290,149)"/>
<path d="M0 0 C0.66 0.33 1.32 0.66 2 1 C1.67 1.99 1.34 2.98 1 4 C1.66 4 2.32 4 3 4 C3 4.66 3 5.32 3 6 C1.35 6 -0.3 6 -2 6 C-2.33 5.01 -2.66 4.02 -3 3 C-2.01 3 -1.02 3 0 3 C0 2.01 0 1.02 0 0 Z " fill="#6B6B6B" transform="translate(223,156)"/>
<path d="" fill="#000000" transform="translate(0,0)"/>
<path d="M0 0 C2 1 2 1 2 1 Z " fill="#000000" transform="translate(280,96)"/>
<path d="" fill="#000000" transform="translate(0,0)"/>
<path d="" fill="#000000" transform="translate(0,0)"/>
<path d="" fill="#070707" transform="translate(0,0)"/>
<path d="" fill="#000000" transform="translate(0,0)"/>
<path d="" fill="#000000" transform="translate(0,0)"/>
<path d="" fill="#000000" transform="translate(0,0)"/>
<path d="" fill="#000000" transform="translate(0,0)"/>
</svg>
